<?xml version="1.0" encoding="UTF-8" standalone="no"?>
<svg
   xmlns:dc="http://purl.org/dc/elements/1.1/"
   xmlns:cc="http://creativecommons.org/ns#"
   xmlns:rdf="http://www.w3.org/1999/02/22-rdf-syntax-ns#"
   xmlns:svg="http://www.w3.org/2000/svg"
   xmlns="http://www.w3.org/2000/svg"
   xmlns:sodipodi="http://sodipodi.sourceforge.net/DTD/sodipodi-0.dtd"
   xmlns:inkscape="http://www.inkscape.org/namespaces/inkscape"
   version="1.1"
   x="0px"
   y="0px"
   viewBox="0 0 64 64"
   xml:space="preserve"
   id="svg26"
   sodipodi:docname="noun_975688_cc.svg"
   width="64"
   height="64"
   inkscape:version="0.92.2 5c3e80d, 2017-08-06"><metadata
     id="metadata32"><rdf:RDF><cc:Work
         rdf:about=""><dc:format>image/svg+xml</dc:format><dc:type
           rdf:resource="http://purl.org/dc/dcmitype/StillImage" /><dc:title></dc:title></cc:Work></rdf:RDF></metadata><defs
     id="defs30" /><sodipodi:namedview
     pagecolor="#ffffff"
     bordercolor="#666666"
     borderopacity="1"
     objecttolerance="10"
     gridtolerance="10"
     guidetolerance="10"
     inkscape:pageopacity="0"
     inkscape:pageshadow="2"
     inkscape:window-width="1504"
     inkscape:window-height="915"
     id="namedview28"
     showgrid="false"
     inkscape:zoom="5.9"
     inkscape:cx="2.7503605"
     inkscape:cy="42.853146"
     inkscape:window-x="2130"
     inkscape:window-y="82"
     inkscape:window-maximized="0"
     inkscape:current-layer="svg26" /><path
     d="m 41,10 c -3.204,0 -6.112,1.27 -8.267,3.323 -0.098,0.048 -0.192,0.106 -0.271,0.185 -2.271,2.267 -3.521,5.282 -3.521,8.491 0,0.27 0.023,0.534 0.041,0.8 L 25.164,30.434 9.252,48.336 C 8.9,48.732 8.918,49.333 9.293,49.707 l 2.277,2.277 c -2.804,2.813 -3.689,5.53 -2.415,7.549 1.387,2.199 4.427,2.63 6.594,2.63 1.317,0 2.312,-0.159 2.416,-0.177 4.128,-0.688 7.473,-3.257 9.718,-7.516 l -1.765,-0.941 -0.05,0.095 c -1.897,3.599 -4.744,5.809 -8.231,6.39 -1.411,0.236 -5.727,0.454 -6.99,-1.547 -0.832,-1.319 0.46,-3.375 2.138,-5.069 l 1.476,1.476 c 0.195,0.194 0.451,0.293 0.707,0.293 0.239,0 0.479,-0.085 0.669,-0.257 L 33.73,38.805 c 0.065,-0.059 0.106,-0.135 0.153,-0.207 l 6.478,-4.627 C 40.555,33.98 40.746,34 40.941,34 40.95,34 40.96,33.998 40.969,33.998 40.98,33.998 40.99,34 41,34 47.617,34 53,28.617 53,22 53,15.383 47.617,10 41,10 Z m 10,12 c 0,2.256 -0.76,4.333 -2.025,6.008 C 46.674,27.222 43.874,25.305 40.624,22.269 36.933,18.82 35.201,16.229 34.389,14.516 36.154,12.956 38.465,12 41,12 c 5.514,0 10,4.486 10,10 z m -9.531,9.976 c -0.165,0.009 -0.33,0.022 -0.496,0.022 -0.317,-0.001 -0.63,-0.018 -0.939,-0.048 -0.146,-0.014 -0.289,-0.04 -0.433,-0.061 -0.171,-0.024 -0.343,-0.045 -0.51,-0.078 -0.14,-0.027 -0.277,-0.063 -0.415,-0.096 -0.17,-0.041 -0.34,-0.081 -0.506,-0.13 -0.128,-0.038 -0.253,-0.081 -0.379,-0.124 -0.173,-0.059 -0.346,-0.121 -0.515,-0.189 -0.113,-0.045 -0.225,-0.094 -0.336,-0.143 -0.18,-0.08 -0.357,-0.166 -0.531,-0.256 -0.095,-0.049 -0.189,-0.098 -0.282,-0.15 -0.191,-0.107 -0.378,-0.222 -0.561,-0.341 -0.07,-0.046 -0.142,-0.089 -0.211,-0.136 -0.219,-0.151 -0.432,-0.31 -0.638,-0.478 C 34.688,29.745 34.658,29.724 34.629,29.7 34.146,29.3 33.701,28.855 33.301,28.372 33.275,28.34 33.252,28.307 33.226,28.275 33.062,28.072 32.905,27.863 32.756,27.647 32.706,27.574 32.66,27.499 32.613,27.425 32.497,27.246 32.385,27.064 32.28,26.877 32.225,26.78 32.174,26.68 32.123,26.581 32.036,26.413 31.953,26.242 31.876,26.068 31.824,25.951 31.773,25.833 31.725,25.713 31.66,25.553 31.602,25.389 31.546,25.225 31.5,25.09 31.454,24.956 31.413,24.819 31.368,24.667 31.331,24.511 31.294,24.355 31.257,24.203 31.218,24.052 31.188,23.897 31.161,23.758 31.144,23.615 31.123,23.474 31.097,23.302 31.067,23.131 31.05,22.956 c 0,0 0,-0.001 0,-0.001 C 31.018,22.642 31,22.323 31,22 c 0,-2.211 0.73,-4.251 1.951,-5.908 1.013,1.865 2.876,4.432 6.308,7.639 1.223,1.143 4.626,4.322 8.197,5.847 -1.572,1.354 -3.525,2.187 -5.593,2.379 -0.131,0.01 -0.263,0.013 -0.394,0.019 z M 15.203,52.789 11.374,48.96 26.043,32.457 l 5.566,5.566 z m 17.905,-16.095 -5.891,-5.891 2.415,-4.83 c 1.276,3.62 4.233,6.449 7.937,7.536 z"
     id="path2"
     inkscape:connector-curvature="0"
     style="stroke:none;stroke-opacity:1;fill:#d32f2f;fill-opacity:1" /><rect
     x="31.112553"
     y="44.25478"
     transform="rotate(-45)"
     width="4.2429595"
     height="1.9999808"
     id="rect4"
     style="stroke-width:0.9999904;fill:#ff8a65;fill-opacity:1;stroke:none;stroke-opacity:1" /><rect
     x="43"
     y="2"
     width="2"
     height="4"
     id="rect6"
     style="fill:#ff8a65;fill-opacity:1;stroke:none;stroke-opacity:1" /><rect
     x="58"
     y="18"
     width="4"
     height="2"
     id="rect8"
     style="fill:#ff8a65;fill-opacity:1;stroke:none;stroke-opacity:1" /><path
     d="m 5,23 c 1.654,0 3,-1.346 3,-3 v -9.307 l 6,-2.25 v 5.741 C 13.686,14.072 13.352,14 13,14 c -1.654,0 -3,1.346 -3,3 0,1.654 1.346,3 3,3 1.654,0 3,-1.346 3,-3 V 7 C 16,6.672 15.839,6.365 15.57,6.178 15.3,5.991 14.956,5.948 14.649,6.064 l -8,3 C 6.259,9.21 6,9.583 6,10 v 7.184 C 5.686,17.072 5.352,17 5,17 c -1.654,0 -3,1.346 -3,3 0,1.654 1.346,3 3,3 z m 8,-5 c -0.551,0 -1,-0.448 -1,-1 0,-0.552 0.449,-1 1,-1 0.551,0 1,0.448 1,1 0,0.552 -0.449,1 -1,1 z m -8,1 c 0.551,0 1,0.448 1,1 0,0.552 -0.449,1 -1,1 -0.551,0 -1,-0.448 -1,-1 0,-0.552 0.449,-1 1,-1 z"
     id="path10"
     inkscape:connector-curvature="0"
     style="fill:#f9a825;fill-opacity:1;stroke:none;stroke-opacity:1" /><path
     d="M 55.57,45.178 C 55.3,44.992 54.956,44.949 54.649,45.064 l -8,3 C 46.259,48.21 46,48.583 46,49 v 7.184 C 45.686,56.072 45.352,56 45,56 c -1.654,0 -3,1.346 -3,3 0,1.654 1.346,3 3,3 1.654,0 3,-1.346 3,-3 v -9.307 l 6,-2.25 v 5.741 C 53.686,53.072 53.352,53 53,53 c -1.654,0 -3,1.346 -3,3 0,1.654 1.346,3 3,3 1.654,0 3,-1.346 3,-3 V 46 c 0,-0.328 -0.161,-0.635 -0.43,-0.822 z M 45,60 c -0.551,0 -1,-0.448 -1,-1 0,-0.552 0.449,-1 1,-1 0.551,0 1,0.448 1,1 0,0.552 -0.449,1 -1,1 z m 8,-3 c -0.551,0 -1,-0.448 -1,-1 0,-0.552 0.449,-1 1,-1 0.551,0 1,0.448 1,1 0,0.552 -0.449,1 -1,1 z"
     id="path12"
     inkscape:connector-curvature="0"
     style="fill:#f9a825;fill-opacity:1;stroke:none;stroke-opacity:1" /><path
     d="m 10,30.618 2.553,1.276 0.895,-1.789 -4,-2 C 9.138,27.951 8.77,27.966 8.475,28.149 8.18,28.332 8,28.653 8,29 v 4.301 C 7.544,33.114 7.039,33 6.5,33 4.57,33 3,34.346 3,36 3,37.654 4.57,39 6.5,39 8.43,39 10,37.654 10,36 Z M 6.5,37 C 5.701,37 5,36.532 5,36 5,35.468 5.701,35 6.5,35 7.299,35 8,35.468 8,36 8,36.532 7.299,37 6.5,37 Z"
     id="path14"
     inkscape:connector-curvature="0"
     style="fill:#f9a825;fill-opacity:1;stroke:none;stroke-opacity:1" /><path
     d="m 36,59 v -5.382 l 2.553,1.276 0.895,-1.789 -4,-2 C 35.138,50.951 34.77,50.966 34.475,51.149 34.18,51.332 34,51.653 34,52 v 4.301 C 33.544,56.114 33.039,56 32.5,56 30.57,56 29,57.346 29,59 c 0,1.654 1.57,3 3.5,3 1.93,0 3.5,-1.346 3.5,-3 z m -3.5,1 C 31.701,60 31,59.532 31,59 c 0,-0.532 0.701,-1 1.5,-1 0.799,0 1.5,0.468 1.5,1 0,0.532 -0.701,1 -1.5,1 z"
     id="path16"
     inkscape:connector-curvature="0"
     style="fill:#f9a825;fill-opacity:1;stroke:none;stroke-opacity:1" /><path
     d="M 28,10 V 4.618 l 2.553,1.276 0.895,-1.789 -4,-2 C 27.138,1.951 26.77,1.966 26.475,2.149 26.18,2.332 26,2.653 26,3 V 7.301 C 25.544,7.114 25.039,7 24.5,7 22.57,7 21,8.346 21,10 c 0,1.654 1.57,3 3.5,3 1.93,0 3.5,-1.346 3.5,-3 z m -5,0 c 0,-0.532 0.701,-1 1.5,-1 0.799,0 1.5,0.468 1.5,1 0,0.532 -0.701,1 -1.5,1 C 23.701,11 23,10.532 23,10 Z"
     id="path18"
     inkscape:connector-curvature="0"
     style="fill:#f9a825;fill-opacity:1;stroke:none;stroke-opacity:1" /><path
     d="M 57.474,31.149 C 57.18,31.332 57,31.653 57,32 v 4.301 C 56.544,36.114 56.039,36 55.5,36 53.57,36 52,37.346 52,39 c 0,1.654 1.57,3 3.5,3 1.93,0 3.5,-1.346 3.5,-3 v -5.382 l 2.553,1.276 0.895,-1.789 -4,-2 c -0.31,-0.154 -0.679,-0.138 -0.974,0.044 z M 55.5,40 C 54.701,40 54,39.532 54,39 c 0,-0.532 0.701,-1 1.5,-1 0.799,0 1.5,0.468 1.5,1 0,0.532 -0.701,1 -1.5,1 z"
     id="path20"
     inkscape:connector-curvature="0"
     style="fill:#f9a825;fill-opacity:1;stroke:none;stroke-opacity:1" /></svg>